<?xml version="1.0" standalone="no"?>
<!DOCTYPE svg PUBLIC "-//W3C//DTD SVG 20010904//EN"
 "http://www.w3.org/TR/2001/REC-SVG-20010904/DTD/svg10.dtd">
<svg version="1.0" xmlns="http://www.w3.org/2000/svg"
 width="512.000000pt" height="512.000000pt" viewBox="0 0 512.000000 512.000000"
 preserveAspectRatio="xMidYMid meet">
<metadata>
Created by potrace 1.14, written by Peter Selinger 2001-2017
</metadata>
<g transform="translate(0.000000,512.000000) scale(0.100000,-0.100000)"
fill="#000000" stroke="none">
<path d="M2378 5115 c-1 -1 -34 -6 -73 -9 -66 -6 -87 -9 -160 -21 -16 -3 -46
-8 -65 -11 -106 -17 -413 -105 -434 -125 -6 -5 -16 -9 -23 -9 -8 0 -44 -14
-81 -31 -37 -17 -83 -38 -102 -47 -213 -96 -495 -298 -688 -492 -154 -155
-258 -289 -399 -515 -165 -263 -306 -696 -340 -1042 -10 -100 -10 -405 0 -506
16 -167 67 -409 96 -460 48 -84 179 -97 250 -26 52 51 58 93 32 207 -13 53
-24 106 -26 117 -9 51 -16 104 -21 150 -3 28 -7 66 -9 85 -6 43 -7 326 -1 360
2 14 7 52 11 85 21 189 60 345 137 545 64 166 122 278 223 430 355 536 937
895 1575 975 25 3 63 7 85 10 49 6 335 6 390 0 206 -23 354 -54 525 -112 693
-233 1242 -814 1431 -1513 7 -25 14 -49 15 -55 9 -33 44 -219 49 -265 13 -107
14 -126 14 -275 1 -210 -5 -265 -44 -460 -156 -776 -732 -1420 -1490 -1667
-96 -31 -224 -64 -290 -73 -22 -3 -46 -8 -53 -10 -7 -3 -47 -8 -90 -11 -42 -3
-80 -8 -84 -10 -8 -5 -311 -5 -363 0 -138 14 -295 41 -385 67 -25 7 -49 13
-55 15 -26 6 -177 59 -230 81 -152 63 -405 208 -508 292 -57 46 -119 100 -179
156 -95 88 -166 103 -245 52 -58 -39 -85 -121 -61 -188 23 -66 242 -257 457
-397 247 -161 596 -307 857 -356 43 -8 212 -36 254 -41 76 -10 431 -13 510 -4
142 16 171 20 240 34 14 2 37 7 52 9 101 17 384 105 488 152 100 46 276 137
314 164 25 16 47 30 51 30 9 0 182 126 261 191 194 159 402 397 543 623 124
198 271 552 307 736 3 14 9 41 14 60 5 19 11 51 14 70 3 19 8 46 11 60 38 182
41 575 6 805 -110 720 -524 1363 -1131 1757 -183 119 -358 206 -550 273 -101
35 -297 88 -370 99 -195 32 -268 39 -452 41 -113 2 -208 2 -210 0z"/>
<path d="M2350 4255 c-209 -28 -401 -88 -575 -180 -107 -56 -119 -64 -234
-148 -126 -93 -262 -229 -356 -357 -161 -218 -265 -468 -312 -745 -17 -101
-24 -352 -13 -435 21 -151 30 -201 35 -210 2 -4 7 -21 10 -38 18 -102 129
-364 208 -488 204 -322 528 -582 880 -704 194 -67 353 -94 562 -94 145 0 182
3 308 23 455 76 896 375 1146 778 120 194 210 434 237 633 3 25 8 54 11 65 12
50 10 327 -3 418 -42 303 -153 577 -323 804 -237 315 -578 544 -946 637 -192
48 -450 65 -635 41z"/>
</g>
</svg>
